<svg width="63" height="52" viewBox="0 0 63 52" fill="none" xmlns="http://www.w3.org/2000/svg">
<path d="M9.84375 49.0991C9.84375 48.5329 10.0512 47.9899 10.4204 47.5896C10.7896 47.1892 11.2904 46.9643 11.8125 46.9643H51.1875C51.7096 46.9643 52.2104 47.1892 52.5796 47.5896C52.9488 47.9899 53.1562 48.5329 53.1562 49.0991C53.1562 49.6652 52.9488 50.2082 52.5796 50.6085C52.2104 51.0089 51.7096 51.2338 51.1875 51.2338H11.8125C11.2904 51.2338 10.7896 51.0089 10.4204 50.6085C10.0512 50.2082 9.84375 49.6652 9.84375 49.0991ZM55.0896 4.26948L55.1841 4.27375C55.9198 4.32806 56.639 4.53534 57.3024 4.88429C57.7803 5.12542 58.1906 5.49962 58.4916 5.96874C58.7554 6.39569 59.0625 7.15138 59.0625 8.53897V34.1174L59.0586 34.2199C59.0081 35.0176 58.8169 35.7973 58.4955 36.5169C58.273 37.0349 57.9279 37.4798 57.4954 37.8063C57.1016 38.0923 56.4047 38.4253 55.125 38.4253H7.91044L7.81594 38.4211C7.0803 38.3663 6.36118 38.1591 5.69756 37.8105C5.21984 37.5692 4.80956 37.1951 4.50844 36.7261C4.24463 36.2991 3.9375 35.5434 3.9375 34.1559V8.57739L3.94144 8.47492C3.99152 7.67719 4.18269 6.89736 4.5045 6.17794C4.72704 5.65994 5.07211 5.21507 5.50462 4.88856C5.89838 4.6025 6.59531 4.26948 7.875 4.26948H55.0896ZM55.125 0H7.875C0 0 0 8.53897 0 8.53897V34.1559C0 42.6948 7.875 42.6948 7.875 42.6948H55.125C63 42.6948 63 34.1559 63 34.1559V8.53897C63 0 55.125 0 55.125 0Z" fill="black"/>
</svg>
